<svg xmlns="http://www.w3.org/2000/svg" xmlns:xlink="http://www.w3.org/1999/xlink" width="47" height="47" viewBox="0 0 47 47"><defs><path id="pxfva" d="M346.672 127.987a23.314 23.314 0 0 0-3.356-2.219c-.138.905-.48 1.694-.95 2.292a20.85 20.85 0 0 1 2.392 1.551 2.447 2.447 0 0 1 1.914-1.624zm-9.414-3.132c0-.45.062-.875.153-1.284a23.124 23.124 0 0 0-5.056-.571c-12.863 0-23.29 10.521-23.29 23.5s10.427 23.5 23.29 23.5 23.29-10.521 23.29-23.5a23.51 23.51 0 0 0-6.147-15.895 2.465 2.465 0 0 1-1.45 2.08 21.032 21.032 0 0 1 5.146 13.815c0 11.612-9.33 21.026-20.84 21.026-11.508 0-20.838-9.414-20.838-21.026 0-11.613 9.33-21.026 20.839-21.026 1.745 0 3.432.24 5.052.648a5.908 5.908 0 0 1-.149-1.267z"/><clipPath id="pxfvb"><use fill="#fff" xlink:href="#pxfva"/></clipPath></defs><g><g transform="translate(-309 -123)"><use fill="#fff" fill-opacity="0" stroke="#474340" stroke-miterlimit="50" stroke-width="4" clip-path="url(&quot;#pxfvb&quot;)" xlink:href="#pxfva"/></g></g></svg>