<svg xmlns="http://www.w3.org/2000/svg" xmlns:xlink="http://www.w3.org/1999/xlink" width="19" height="19" viewBox="0 0 19 19"><defs><path id="ur4ra" d="M432.503 142.85a.308.308 0 0 0-.174-.272l-5.059-2.45-.886-5.479a.31.31 0 0 0-.524-.168l-3.852 3.964-5.534-.936a.299.299 0 1 0-.317.44l2.679 4.899-2.535 4.9a.301.301 0 0 0 .028.319.31.31 0 0 0 .301.12l5.507-.935 3.968 3.965a.313.313 0 0 0 .315.076c.11-.035.19-.13.205-.244l.725-5.478 4.987-2.45a.297.297 0 0 0 .166-.271z"/><path id="ur4rb" d="M426.748 142.165a.113.113 0 0 0-.066-.1l-1.895-.895-.332-2a.114.114 0 0 0-.08-.09.116.116 0 0 0-.117.028l-1.443 1.448-2.074-.342a.115.115 0 0 0-.111.044.107.107 0 0 0-.007.116l1.003 1.79-.95 1.79a.108.108 0 0 0 .011.116c.026.035.07.052.113.044l2.063-.341 1.487 1.448a.118.118 0 0 0 .118.028.11.11 0 0 0 .077-.09l.272-2 1.868-.895a.108.108 0 0 0 .063-.1z"/></defs><g><g transform="translate(-415 -133)"><use fill="#f9f202" xlink:href="#ur4ra"/><use fill="#fff" fill-opacity="0" stroke="#474340" stroke-miterlimit="50" stroke-width="1.5" xlink:href="#ur4ra"/></g><g transform="translate(-415 -133)"><use fill="#f74a5a" xlink:href="#ur4rb"/></g></g></svg>