<svg xmlns="http://www.w3.org/2000/svg" width="27.719" height="10.375" viewBox="0 0 27.719 10.375">
  <defs>
    <style>
      .cls-1 {
        fill: #4a4643;
        fill-rule: evenodd;
      }
    </style>
  </defs>
  <path id="face2_eye.svg" class="cls-1" d="M178.746,137.088a10.236,10.236,0,0,1-3.294-1.72,16.235,16.235,0,0,1-2.835-3.227l0.766-.966,6.129,4.947Zm0.383,0.754v2.474a12.51,12.51,0,0,1-4.9,1.237,12.67,12.67,0,0,1-4.9-1.237v-2.474a12.5,12.5,0,0,0,4.9,1.237A12.67,12.67,0,0,0,179.129,137.842Zm-25.742,2.474v-2.474a12.51,12.51,0,0,0,4.9,1.237,12.678,12.678,0,0,0,4.9-1.237v2.474a12.511,12.511,0,0,1-4.9,1.237A12.677,12.677,0,0,1,153.387,140.316Zm-0.843-3.228-0.766-.966,6.129-4.947,0.766,0.966a16.213,16.213,0,0,1-2.834,3.227A10.246,10.246,0,0,1,152.544,137.088Z" transform="translate(-151.781 -131.188)"/>
</svg>
