<svg xmlns="http://www.w3.org/2000/svg" xmlns:xlink="http://www.w3.org/1999/xlink" width="23" height="7" viewBox="0 0 23 7"><defs><path id="oiuna" d="M241.656 149c1.346 0 2.438 1.105 2.438 2.469 0 1.363-1.092 2.468-2.438 2.468s-2.437-1.105-2.437-2.468c0-1.364 1.091-2.469 2.437-2.469z"/><path id="oiunb" d="M257.578 149a2.461 2.461 0 0 1 2.453 2.469 2.461 2.461 0 0 1-2.453 2.468 2.461 2.461 0 0 1-2.453-2.468 2.461 2.461 0 0 1 2.453-2.469z"/></defs><g><g transform="translate(-238 -148)"><use fill="#fff" xlink:href="#oiuna"/><use fill="#fff" fill-opacity="0" stroke="#474340" stroke-miterlimit="50" stroke-width="2" xlink:href="#oiuna"/></g><g transform="translate(-238 -148)"><use fill="#fff" xlink:href="#oiunb"/><use fill="#fff" fill-opacity="0" stroke="#474340" stroke-miterlimit="50" stroke-width="2" xlink:href="#oiunb"/></g></g></svg>